<svg width="152" height="40" viewBox="0 0 152 40" fill="none" xmlns="http://www.w3.org/2000/svg">
<path d="M16.9227 1.3848C19.2552 -0.564078 21.2155 -0.356197 23.0765 1.3848C22.6547 10.7913 23.7217 14.9229 23.0765 24.4074H16.9227C17.543 15.3387 16.4512 11.1551 16.9227 1.3848Z" fill="url(#paint0_linear_461_291)"/>
<path d="M7.79102 22.3287C16.5503 23.472 20.5454 18.2231 29.4784 22.3287V32.047H7.79102V22.3287Z" fill="url(#paint1_linear_461_291)"/>
<path fill-rule="evenodd" clip-rule="evenodd" d="M4.37069 5.987C1.63547 9.56937 0 14.1127 0 19.0561C0 30.623 8.9543 39.9999 20 39.9999C31.0457 39.9999 40 30.623 40 19.0561C40 13.63 38.0295 8.68579 34.797 4.96546C28.9113 3.71436 26.8974 6.36007 26.5042 11.6227C28.424 13.4659 29.6277 16.1139 29.6277 19.0563C29.6277 24.6245 25.3171 29.1384 19.9999 29.1384C14.6826 29.1384 10.3721 24.6245 10.3721 19.0563C10.3721 16.4324 11.3293 14.0426 12.8979 12.2489C12.8503 12.2749 12.8025 12.3006 12.7545 12.3259C12.7545 8.09954 11.4735 3.75652 4.37069 5.987Z" fill="url(#paint2_linear_461_291)"/>
<path d="M61.592 24.832H66.968V28H57.488V11.152H61.592V24.832ZM68.1095 21.28C68.1095 19.904 68.3655 18.696 68.8775 17.656C69.4055 16.616 70.1175 15.816 71.0135 15.256C71.9095 14.696 72.9095 14.416 74.0135 14.416C74.9575 14.416 75.7815 14.608 76.4855 14.992C77.2055 15.376 77.7575 15.88 78.1415 16.504V14.608H82.2455V28H78.1415V26.104C77.7415 26.728 77.1815 27.232 76.4615 27.616C75.7575 28 74.9335 28.192 73.9895 28.192C72.9015 28.192 71.9095 27.912 71.0135 27.352C70.1175 26.776 69.4055 25.968 68.8775 24.928C68.3655 23.872 68.1095 22.656 68.1095 21.28ZM78.1415 21.304C78.1415 20.28 77.8535 19.472 77.2775 18.88C76.7175 18.288 76.0295 17.992 75.2135 17.992C74.3975 17.992 73.7015 18.288 73.1255 18.88C72.5655 19.456 72.2855 20.256 72.2855 21.28C72.2855 22.304 72.5655 23.12 73.1255 23.728C73.7015 24.32 74.3975 24.616 75.2135 24.616C76.0295 24.616 76.7175 24.32 77.2775 23.728C77.8535 23.136 78.1415 22.328 78.1415 21.304ZM95.4146 19.36C96.3906 19.568 97.1746 20.056 97.7666 20.824C98.3586 21.576 98.6546 22.44 98.6546 23.416C98.6546 24.824 98.1586 25.944 97.1666 26.776C96.1906 27.592 94.8226 28 93.0626 28H85.2146V11.152H92.7986C94.5106 11.152 95.8466 11.544 96.8066 12.328C97.7826 13.112 98.2706 14.176 98.2706 15.52C98.2706 16.512 98.0066 17.336 97.4786 17.992C96.9666 18.648 96.2786 19.104 95.4146 19.36ZM89.3186 17.968H92.0066C92.6786 17.968 93.1906 17.824 93.5426 17.536C93.9106 17.232 94.0946 16.792 94.0946 16.216C94.0946 15.64 93.9106 15.2 93.5426 14.896C93.1906 14.592 92.6786 14.44 92.0066 14.44H89.3186V17.968ZM92.3426 24.688C93.0306 24.688 93.5586 24.536 93.9266 24.232C94.3106 23.912 94.5026 23.456 94.5026 22.864C94.5026 22.272 94.3026 21.808 93.9026 21.472C93.5186 21.136 92.9826 20.968 92.2946 20.968H89.3186V24.688H92.3426ZM105.139 16.84C105.619 16.104 106.219 15.528 106.939 15.112C107.659 14.68 108.459 14.464 109.339 14.464V18.808H108.211C107.187 18.808 106.419 19.032 105.907 19.48C105.395 19.912 105.139 20.68 105.139 21.784V28H101.035V14.608H105.139V16.84ZM110.485 21.28C110.485 19.904 110.741 18.696 111.253 17.656C111.781 16.616 112.493 15.816 113.389 15.256C114.285 14.696 115.285 14.416 116.389 14.416C117.333 14.416 118.157 14.608 118.861 14.992C119.581 15.376 120.133 15.88 120.517 16.504V14.608H124.621V28H120.517V26.104C120.117 26.728 119.557 27.232 118.837 27.616C118.133 28 117.309 28.192 116.365 28.192C115.277 28.192 114.285 27.912 113.389 27.352C112.493 26.776 111.781 25.968 111.253 24.928C110.741 23.872 110.485 22.656 110.485 21.28ZM120.517 21.304C120.517 20.28 120.229 19.472 119.653 18.88C119.093 18.288 118.405 17.992 117.589 17.992C116.773 17.992 116.077 18.288 115.501 18.88C114.941 19.456 114.661 20.256 114.661 21.28C114.661 22.304 114.941 23.12 115.501 23.728C116.077 24.32 116.773 24.616 117.589 24.616C118.405 24.616 119.093 24.32 119.653 23.728C120.229 23.136 120.517 22.328 120.517 21.304ZM131.694 16.84C132.174 16.104 132.774 15.528 133.494 15.112C134.214 14.68 135.014 14.464 135.894 14.464V18.808H134.766C133.742 18.808 132.974 19.032 132.462 19.48C131.95 19.912 131.694 20.68 131.694 21.784V28H127.59V14.608H131.694V16.84ZM151.535 14.608L143.135 34.36H138.719L141.791 27.544L136.343 14.608H140.927L144.023 22.984L147.095 14.608H151.535Z" fill="white"/>
<defs>
<linearGradient id="paint0_linear_461_291" x1="20.0451" y1="0" x2="20.0451" y2="24.4074" gradientUnits="userSpaceOnUse">
<stop offset="0.142361" stop-color="#D46616"/>
<stop offset="1" stop-color="#D46616" stop-opacity="0"/>
</linearGradient>
<linearGradient id="paint1_linear_461_291" x1="18.6347" y1="20.7329" x2="18.6347" y2="32.047" gradientUnits="userSpaceOnUse">
<stop stop-color="#D46616" stop-opacity="0"/>
<stop offset="1" stop-color="#D46616"/>
</linearGradient>
<linearGradient id="paint2_linear_461_291" x1="20" y1="4.65869" x2="20" y2="39.9998" gradientUnits="userSpaceOnUse">
<stop stop-color="#0FA190" stop-opacity="0"/>
<stop offset="0.479167" stop-color="#14C3AE"/>
</linearGradient>
</defs>
</svg>
