<svg width="26" height="27" viewBox="0 0 26 27" fill="none" xmlns="http://www.w3.org/2000/svg">
<path d="M1 1H3.1363C4.46228 1 5.50585 2.14181 5.39535 3.45551L4.37632 15.6839C4.20443 17.6852 5.78822 19.404 7.80174 19.404H20.8773C22.6453 19.404 24.1923 17.9553 24.3273 16.1996L24.9903 6.99143C25.1376 4.95336 23.5907 3.2959 21.5403 3.2959H5.69003" stroke="#C86F43" stroke-width="1.5" stroke-miterlimit="10" stroke-linecap="round" stroke-linejoin="round"/>
<path d="M18.4955 25.5551C19.3431 25.5551 20.0302 24.868 20.0302 24.0204C20.0302 23.1727 19.3431 22.4857 18.4955 22.4857C17.6479 22.4857 16.9608 23.1727 16.9608 24.0204C16.9608 24.868 17.6479 25.5551 18.4955 25.5551Z" stroke="#C86F43" stroke-width="1.5" stroke-miterlimit="10" stroke-linecap="round" stroke-linejoin="round"/>
<path d="M8.67349 25.5551C9.52108 25.5551 10.2082 24.868 10.2082 24.0204C10.2082 23.1727 9.52108 22.4857 8.67349 22.4857C7.82589 22.4857 7.13879 23.1727 7.13879 24.0204C7.13879 24.868 7.82589 25.5551 8.67349 25.5551Z" stroke="#C86F43" stroke-width="1.5" stroke-miterlimit="10" stroke-linecap="round" stroke-linejoin="round"/>
<path d="M9.59424 8.36652H24.3273" stroke="#C86F43" stroke-width="1.5" stroke-miterlimit="10" stroke-linecap="round" stroke-linejoin="round"/>
</svg>
