<svg width="24" height="24" viewBox="0 0 24 24" fill="none" xmlns="http://www.w3.org/2000/svg">
<path d="M12 6.90002C9.73199 6.90002 9.29999 7.84802 9.29999 9.60002V10.344H14.7V9.60002C14.7 7.84802 14.268 6.90002 12 6.90002Z" fill="#215855"/>
<path d="M11.998 15.718C12.7272 15.718 13.318 15.1271 13.318 14.398C13.318 13.669 12.7272 13.078 11.998 13.078C11.269 13.078 10.678 13.669 10.678 14.398C10.678 15.1271 11.269 15.718 11.998 15.718Z" fill="#215855"/>
<path d="M12 0C5.376 0 0 5.376 0 12C0 18.624 5.376 24 12 24C18.624 24 24 18.624 24 12C24 5.376 18.624 0 12 0ZM18.456 15C18.456 17.64 17.64 18.456 15 18.456H9C6.36 18.456 5.544 17.64 5.544 15V13.8C5.544 11.748 6.036 10.8 7.5 10.476V9.6C7.5 8.484 7.5 5.1 12 5.1C16.5 5.1 16.5 8.484 16.5 9.6V10.476C17.964 10.8 18.456 11.748 18.456 13.8V15Z" fill="#215855"/>
</svg>
