<svg width="21" height="26" viewBox="0 0 21 26" fill="none" xmlns="http://www.w3.org/2000/svg">
<path d="M20.2 8.50001V20.2C20.2 23.8 18.052 25 15.4 25H5.8C3.148 25 1 23.8 1 20.2V8.50001C1 4.60001 3.148 3.70001 5.8 3.70001C5.8 4.44401 6.09996 5.11601 6.59196 5.60801C7.08396 6.10001 7.756 6.40001 8.5 6.40001H12.7C14.188 6.40001 15.4 5.18801 15.4 3.70001C18.052 3.70001 20.2 4.60001 20.2 8.50001Z" stroke="#C86F43" stroke-width="1.5" stroke-linecap="round" stroke-linejoin="round"/>
<path d="M15.4 3.7C15.4 5.188 14.188 6.4 12.7 6.4H8.50005C7.75605 6.4 7.08401 6.1 6.59201 5.608C6.10001 5.116 5.80005 4.444 5.80005 3.7C5.80005 2.212 7.01205 1 8.50005 1H12.7C13.444 1 14.116 1.3 14.608 1.792C15.1 2.284 15.4 2.956 15.4 3.7Z" stroke="#C86F43" stroke-width="1.5" stroke-linecap="round" stroke-linejoin="round"/>
<path d="M5.80005 14.2H10.6" stroke="#C86F43" stroke-width="1.5" stroke-linecap="round" stroke-linejoin="round"/>
<path d="M5.80005 19H15.4" stroke="#C86F43" stroke-width="1.5" stroke-linecap="round" stroke-linejoin="round"/>
</svg>
