<svg width="28" height="24" viewBox="0 0 28 24" fill="none" xmlns="http://www.w3.org/2000/svg">
<path d="M18.3904 12.1544C18.3904 14.5826 16.4282 16.5448 14 16.5448C11.5718 16.5448 9.60968 14.5826 9.60968 12.1544C9.60968 9.72617 11.5718 7.76404 14 7.76404C16.4282 7.76404 18.3904 9.72617 18.3904 12.1544Z" stroke="#215855" stroke-width="2.13" stroke-linecap="round" stroke-linejoin="round"/>
<path d="M14 22.2964C18.3291 22.2964 22.3638 19.7455 25.1722 15.3306C26.2759 13.6014 26.2759 10.695 25.1722 8.96575C22.3638 4.55084 18.3291 2 14 2C9.67091 2 5.63617 4.55084 2.8278 8.96575C1.72407 10.695 1.72407 13.6014 2.8278 15.3306C5.63617 19.7455 9.67091 22.2964 14 22.2964Z" stroke="#215855" stroke-width="2.13" stroke-linecap="round" stroke-linejoin="round"/>
</svg>
