<svg width="24" height="24" viewBox="0 0 24 24" fill="none" xmlns="http://www.w3.org/2000/svg">
<path d="M15.3488 24H8.65116C2.58977 24 0 21.4102 0 15.3488V8.65116C0 2.58977 2.58977 0 8.65116 0H15.3488C21.4102 0 24 2.58977 24 8.65116V15.3488C24 21.4102 21.4102 24 15.3488 24ZM8.65116 1.67442C3.50512 1.67442 1.67442 3.50512 1.67442 8.65116V15.3488C1.67442 20.4949 3.50512 22.3256 8.65116 22.3256H15.3488C20.4949 22.3256 22.3256 20.4949 22.3256 15.3488V8.65116C22.3256 3.50512 20.4949 1.67442 15.3488 1.67442H8.65116Z" fill="#C86F43"/>
<path d="M12.0001 19.7582C11.7322 19.7582 11.4642 19.6913 11.241 19.5685C9.94611 18.8652 7.65777 18.1061 6.21777 17.9164L6.00568 17.8829C4.91172 17.7489 4.04102 16.7666 4.04102 15.6392V7.04381C4.04102 6.40753 4.30895 5.79358 4.76662 5.36939C5.23546 4.9452 5.83823 4.73312 6.48567 4.78894C8.11543 4.92289 10.4819 5.70429 11.8773 6.57498L11.9889 6.64196L12.0337 6.60847C13.4402 5.72661 15.8066 4.93405 17.4475 4.78894H17.5591C18.1396 4.73312 18.7647 4.95637 19.2224 5.36939C19.6912 5.79358 19.948 6.38519 19.948 7.03264V15.6168C19.948 16.7331 19.0773 17.7154 17.9722 17.8606L17.7377 17.8941C16.3089 18.0838 14.0094 18.8429 12.7368 19.5461C12.5247 19.7024 12.268 19.7582 12.0001 19.7582ZM6.29592 6.4745C6.13964 6.4745 6.00564 6.53031 5.90518 6.61961C5.78239 6.73124 5.72661 6.88754 5.72661 7.05498V15.6503C5.72661 15.9182 5.9722 16.1973 6.22895 16.2308L6.44104 16.2643C8.07081 16.4875 10.5712 17.3024 12.0224 18.095C13.3731 17.3136 15.8847 16.4764 17.5256 16.2643L17.7712 16.2308C18.028 16.1973 18.2736 15.9182 18.2736 15.6503V7.06611C18.2736 6.88751 18.2066 6.74241 18.0949 6.63079C17.9722 6.51916 17.8159 6.47451 17.6373 6.48567C17.6149 6.48567 17.548 6.48567 17.5256 6.48567C16.2308 6.5973 14.0987 7.31171 12.9377 8.04845L12.8261 8.11543C12.3349 8.41682 11.6429 8.41683 11.174 8.1266L11.0066 8.02614C9.83448 7.28939 7.70241 6.58612 6.35171 6.4745C6.32939 6.4745 6.31825 6.4745 6.29592 6.4745Z" fill="#C86F43"/>
<path d="M12.0001 19.1555C11.5424 19.1555 11.1628 18.7759 11.1628 18.3183V7.64663C11.1628 7.18895 11.5424 6.80942 12.0001 6.80942C12.4577 6.80942 12.8373 7.18895 12.8373 7.64663V18.3183C12.8373 18.7871 12.4577 19.1555 12.0001 19.1555Z" fill="#C86F43"/>
</svg>
