<svg width="24" height="25" viewBox="0 0 24 25" fill="none" xmlns="http://www.w3.org/2000/svg">
<path d="M8.20743 3.04601e-05H8.35964C13.5581 3.04601e-05 16.0636 2.04896 16.4968 6.63855C16.5436 7.11858 16.1924 7.55178 15.7006 7.59862C15.2323 7.64545 14.7874 7.2825 14.7406 6.80246C14.401 3.12611 12.6682 1.75625 8.34793 1.75625H8.19572C3.43051 1.75625 1.74454 3.44223 1.74454 8.20744V15.8412C1.74454 20.6064 3.43051 22.2924 8.19572 22.2924H8.34793C12.6917 22.2924 14.4245 20.8991 14.7406 17.1525C14.7991 16.6725 15.2089 16.3095 15.7006 16.3563C16.1924 16.3915 16.5436 16.8247 16.5085 17.3047C16.1104 21.9645 13.5932 24.0486 8.35964 24.0486H8.20743C2.45873 24.0486 2.28102e-05 21.5899 2.28102e-05 15.8412L2.28102e-05 8.20744C2.28102e-05 2.45874 2.45873 3.04601e-05 8.20743 3.04601e-05Z" fill="#F5F5F5"/>
<path d="M8.49002 11.1462L21.8138 11.1462C22.2939 11.1462 22.692 11.5443 22.692 12.0244C22.692 12.5044 22.2939 12.9025 21.8138 12.9025L8.49002 12.9025C8.00999 12.9025 7.61191 12.5044 7.61191 12.0244C7.61191 11.5443 8.00999 11.1462 8.49002 11.1462Z" fill="#F5F5F5"/>
<path d="M19.2026 7.22389C19.425 7.22389 19.6475 7.30585 19.8231 7.48147L23.7453 11.4037C24.0849 11.7432 24.0849 12.3052 23.7453 12.6448L19.8231 16.567C19.4836 16.9065 18.9216 16.9065 18.5821 16.567C18.2425 16.2275 18.2425 15.6655 18.5821 15.3259L21.8838 12.0242L18.5821 8.72253C18.2425 8.383 18.2425 7.82101 18.5821 7.48147C18.746 7.30585 18.9801 7.22389 19.2026 7.22389Z" fill="#F5F5F5"/>
</svg>
